<svg width="20" height="20" viewBox="0 0 20 20" fill="none" xmlns="http://www.w3.org/2000/svg">
<path d="M14.5 3.2002C14.4 3.2002 14.2 3.3002 14.1 3.5002L13.3 5.0002C12.3 4.4002 11.2 4.0002 10 4.0002C8.8 4.0002 7.7 4.3002 6.8 4.9002L5.9 3.5002C5.8 3.3002 5.6 3.2002 5.5 3.3002C5.4 3.3002 5.4 3.2002 5.3 3.3002H5.2C5 3.5002 4.9 3.8002 5.1 4.0002L6 5.6002C4.8 6.7002 4 8.2002 4 10.0002H16C16 8.3002 15.3 6.7002 14.1 5.6002L15 4.0002C15.1 3.8002 15 3.5002 14.8 3.3002H14.7C14.7 3.2002 14.6 3.2002 14.5 3.2002ZM7.3 7.0002C7.8 7.0002 8.2 7.4002 8.2 7.9002C8.2 8.4002 7.8 8.8002 7.3 8.8002C6.8 8.8002 6.4 8.4002 6.4 7.9002C6.4 7.4002 6.8 7.0002 7.3 7.0002ZM12.7 7.0002C13.2 7.0002 13.6 7.4002 13.6 7.9002C13.6 8.4002 13.2 8.8002 12.7 8.8002C12.2 8.8002 11.8 8.4002 11.8 7.9002C11.8 7.4002 12.2 7.0002 12.7 7.0002ZM4 10.5002V16.0002H16V10.5002H4Z" fill="#A6E3A1"/>
</svg>
