<svg width="20" height="20" viewBox="0 0 20 20" fill="none" xmlns="http://www.w3.org/2000/svg">
<path d="M11.255 10.4537C10.9899 10.4574 11.3051 10.5902 11.6512 10.6435C11.7469 10.5689 11.8336 10.4934 11.9109 10.4199C11.6953 10.4727 11.4761 10.4738 11.255 10.4537Z" fill="#F38BA8"/>
<path d="M12.678 10.0986C12.8359 9.88075 12.9509 9.64211 12.9915 9.39551C12.9561 9.57135 12.8607 9.72322 12.7707 9.88345C12.2751 10.1954 12.7241 9.69816 12.7705 9.50914C12.2377 10.1799 12.6973 9.91128 12.678 10.0986Z" fill="#F38BA8"/>
<path d="M13.2033 8.73161C13.2353 8.25421 13.1094 8.40512 13.067 8.58733C13.1162 8.61303 13.1555 8.92391 13.2033 8.73161Z" fill="#F38BA8"/>
<path d="M10.2497 2.20605C10.3912 2.23144 10.5554 2.25092 10.5324 2.28472C10.6871 2.25079 10.7222 2.21949 10.2497 2.20605Z" fill="#F38BA8"/>
<path d="M10.5324 2.28516L10.4324 2.30572L10.5254 2.29756L10.5324 2.28516Z" fill="#F38BA8"/>
<path d="M14.9445 8.91254C14.9604 9.34129 14.8192 9.54927 14.6918 9.91754L14.4627 10.032C14.2751 10.3962 14.4808 10.2633 14.3466 10.5529C14.0538 10.8132 13.4582 11.3672 13.2675 11.4178C13.1285 11.4148 13.3619 11.2537 13.3924 11.1905C13.0005 11.4597 13.0779 11.5944 12.4787 11.758L12.4611 11.719C10.9828 12.4143 8.92964 11.0363 8.9567 9.15613C8.94089 9.27548 8.91184 9.24566 8.87906 9.29393C8.80283 8.32652 9.32587 7.35488 10.2079 6.95814C11.0708 6.53099 12.0822 6.70632 12.7003 7.28232C12.3608 6.83756 11.6851 6.3662 10.8843 6.41029C10.0997 6.4227 9.36591 6.92124 9.12097 7.46234C8.71909 7.71544 8.67243 8.43778 8.49729 8.56992C8.26174 10.3016 8.9405 11.0497 10.0888 11.9297C10.2695 12.0515 10.1397 12.07 10.1642 12.1628C9.78264 11.9842 9.43327 11.7144 9.14604 11.3842C9.29849 11.6074 9.46296 11.8243 9.67557 11.9947C9.31591 11.8728 8.83529 11.123 8.69505 11.0925C9.31507 12.2027 11.2107 13.0396 12.2034 12.6244C11.7441 12.6413 11.1605 12.6338 10.6444 12.4431C10.4278 12.3316 10.133 12.1004 10.1856 12.0572C11.5403 12.5634 12.9398 12.4406 14.1119 11.501C14.4101 11.2687 14.7359 10.8736 14.8299 10.8682C14.6882 11.0814 14.8542 10.9707 14.7452 11.1589C15.0425 10.6797 14.6162 10.9638 15.0524 10.3313L15.2135 10.5532C15.1537 10.1555 15.7076 9.67242 15.6514 9.04333C15.7783 8.85091 15.7932 9.25029 15.6583 9.69292C15.8454 9.20189 15.7076 9.12303 15.7557 8.71787C15.8078 8.85399 15.8757 8.99873 15.9107 9.14244C15.7889 8.66799 16.0359 8.34336 16.097 8.06758C16.0368 8.0409 15.9088 8.27736 15.8796 7.71685C15.8837 7.47339 15.9473 7.58927 15.9718 7.52937C15.924 7.50193 15.7986 7.31535 15.7224 6.95736C15.7777 6.8733 15.8702 7.17543 15.9454 7.18784C15.897 6.90318 15.8137 6.68621 15.8103 6.46788C15.5904 6.00841 15.7324 6.52913 15.5542 6.27063C15.3201 5.54071 15.7483 6.10115 15.7772 5.76958C16.1319 6.28342 16.3342 7.07986 16.4269 7.4097C16.3561 7.0075 16.2417 6.61789 16.1019 6.24094C16.2096 6.28625 15.9284 5.41345 16.242 5.99144C15.9071 4.75924 14.8086 3.60783 13.7981 3.06757C13.9217 3.18069 14.0779 3.32279 14.0218 3.34503C13.5193 3.04578 13.6076 3.02252 13.5356 2.8961C13.1263 2.72957 13.0993 2.90947 12.8282 2.89636C12.0566 2.48708 11.9079 2.53066 11.1978 2.27415L11.23 2.42512C10.7189 2.25487 10.6345 2.48971 10.082 2.4257C10.0484 2.39941 10.259 2.33064 10.4324 2.30545C9.93818 2.37069 9.96138 2.20808 9.47774 2.32338C9.59696 2.23977 9.72293 2.18443 9.85006 2.11328C9.44702 2.13777 8.88786 2.34781 9.06043 2.15679C8.40262 2.45045 7.23495 2.86223 6.57977 3.47659L6.55914 3.33892C6.25887 3.69935 5.24988 4.41533 5.16948 4.88213L5.08921 4.90083C4.93297 5.16537 4.83187 5.46519 4.70795 5.73738C4.50357 6.08553 4.40839 5.87138 4.4375 5.92595C4.03562 6.74084 3.83599 7.42551 3.66349 7.98705C3.78638 8.17073 3.66645 9.09289 3.71291 9.83084C3.51104 13.4756 6.27089 17.0144 9.28756 17.8313C9.72975 17.9893 10.3872 17.9832 10.9466 17.9995C10.2867 17.8108 10.2014 17.8995 9.55866 17.6753C9.09494 17.4569 8.99327 17.2076 8.66484 16.9227L8.7948 17.1523C8.15074 16.9243 8.42017 16.8702 7.89617 16.7042L8.03499 16.523C7.82618 16.5072 7.48201 16.1711 7.38785 15.985L7.1595 15.994C6.88506 15.6553 6.73884 15.4115 6.74951 15.2224L6.67573 15.3539C6.59211 15.2103 5.6661 14.084 6.14652 14.3462C6.05725 14.2646 5.93861 14.2134 5.80994 13.9797L5.90776 13.8679C5.67658 13.5706 5.48222 13.1891 5.49701 13.0622C5.62034 13.2288 5.70589 13.2599 5.79059 13.2885C5.20682 11.8399 5.17404 13.2087 4.7318 11.814L4.82538 11.8065C4.75365 11.6984 4.71014 11.5812 4.65249 11.466L4.69317 11.0603C4.27278 10.5743 4.57562 8.99391 4.63616 8.12716C4.67826 7.77463 4.98702 7.39948 5.22193 6.81108L5.0788 6.7864C5.35233 6.30932 6.64064 4.87024 7.2372 4.94428C7.52635 4.58121 7.17987 4.94299 7.12331 4.85153C7.75818 4.1945 7.9578 4.38737 8.38623 4.26918C8.84834 3.99487 7.98968 4.37612 8.20878 4.16455C9.00747 3.96055 8.77488 3.70077 9.8169 3.59716C9.9268 3.6597 9.56181 3.69376 9.47016 3.77494C10.1356 3.44934 11.5762 3.52338 12.5118 3.9556C13.5977 4.46308 14.8174 5.9629 14.8656 7.3741L14.9203 7.38881C14.8926 7.94983 15.0062 8.59852 14.8093 9.19443L14.9443 8.91261" fill="#F38BA8"/>
<path d="M8.36123 10.8174L8.32408 11.0033C8.49826 11.24 8.6365 11.4965 8.85901 11.6815C8.69897 11.369 8.58001 11.2398 8.36123 10.8174Z" fill="#F38BA8"/>
<path d="M8.77313 10.8012C8.6809 10.6992 8.62634 10.5764 8.56522 10.4541C8.62364 10.6691 8.74331 10.8538 8.85469 11.0417L8.77313 10.8012Z" fill="#F38BA8"/>
<path d="M16.0621 9.2168L16.0233 9.31449C15.9519 9.82171 15.7976 10.3236 15.5612 10.7889C15.8222 10.298 15.9912 9.76091 16.0619 9.2168" fill="#F38BA8"/>
<path d="M10.3021 2.07925C10.4813 2.01356 10.7427 2.04325 10.9328 2C10.6851 2.02082 10.4384 2.03323 10.1947 2.06459L10.3021 2.07925Z" fill="#F38BA8"/>
<path d="M4.00888 5.42578C4.05014 5.80826 3.72114 5.95666 4.08176 5.70452C4.27502 5.26922 4.00624 5.58434 4.00888 5.42578Z" fill="#F38BA8"/>
<path d="M3.58514 7.19527C3.66818 6.94031 3.68322 6.78721 3.71497 6.63965C3.48546 6.93311 3.60937 6.99564 3.58514 7.19527Z" fill="#F38BA8"/>
</svg>
