<svg width="20" height="20" viewBox="0 0 20 20" fill="none" xmlns="http://www.w3.org/2000/svg">
<path d="M8.59375 3L8 5.09375L6.84375 5.8125L4.625 5.34375L3.21875 7.65625L4.84375 9.3125V10.6875L3.21875 12.3438L4.625 14.6562L6.84375 14.1875L8 14.9062L8.59375 17H11.4062L12.0938 14.9062L13.1562 14.1875L15.375 14.6562L16.7812 12.3438L15.25 10.6875V9.3125L16.7812 7.65625L15.375 5.34375L13.1562 5.8125L12.0938 5.09375L11.4062 3H8.59375ZM10 7.5C11.3807 7.5 12.5 8.61929 12.5 10C12.5 11.3807 11.3807 12.5 10 12.5C8.61929 12.5 7.5 11.3807 7.5 10C7.5 8.61929 8.61929 7.5 10 7.5Z" fill="#CBA6F7"/>
</svg>
