<svg width="20" height="20" viewBox="0 0 20 20" fill="none" xmlns="http://www.w3.org/2000/svg">
<path d="M14.1875 4.6875C13.0902 4.68751 12.1993 4.94055 11.5625 5.46875C10.9257 5.98719 10.625 6.70553 10.625 7.625C10.625 8.06518 10.6968 8.46824 10.8438 8.78125C11.0005 9.09427 11.1926 9.33753 11.4375 9.5625C11.6922 9.78748 11.9892 9.99975 12.3125 10.1562C12.6456 10.303 12.991 10.4353 13.3438 10.5625C13.6965 10.6799 14.0069 10.8103 14.2812 10.9375C14.5556 11.0549 14.7826 11.1658 14.9688 11.3125C15.1647 11.4494 15.3083 11.6052 15.4062 11.7812C15.514 11.9573 15.5625 12.1617 15.5625 12.4062C15.5625 12.8171 15.4287 13.15 15.125 13.375C14.8213 13.6 14.3225 13.7188 13.6562 13.7188C13.0194 13.7188 12.4819 13.6467 12.0312 13.5C11.5806 13.3533 11.2333 13.2092 10.9688 13.0625L10.4062 14.5625C10.5238 14.631 10.679 14.7245 10.875 14.8125C11.0709 14.8908 11.298 14.953 11.5625 15.0312C11.8368 15.1095 12.1571 15.1698 12.5 15.2188C12.8527 15.2774 13.235 15.3125 13.6562 15.3125C14.9103 15.3125 15.8534 15.0614 16.5 14.5625C17.1564 14.0539 17.5 13.3257 17.5 12.4062C17.5 11.927 17.4184 11.5513 17.2812 11.2188C17.1441 10.8764 16.952 10.557 16.6875 10.3125C16.4328 10.0582 16.1321 9.86358 15.75 9.6875C15.3777 9.50165 14.9488 9.30108 14.4688 9.125C14.1944 9.02719 13.9226 8.92011 13.6875 8.8125C13.4622 8.70491 13.2701 8.59592 13.0938 8.46875C12.9272 8.34159 12.7855 8.21901 12.6875 8.0625C12.5993 7.89622 12.5625 7.69374 12.5625 7.46875C12.5625 7.09705 12.6944 6.79917 12.9688 6.59375C13.2529 6.38834 13.6566 6.28126 14.1562 6.28125C14.5775 6.28126 14.9831 6.33969 15.375 6.4375C15.7767 6.53533 16.1356 6.68916 16.4688 6.875L17.0312 5.375C16.7471 5.20872 16.3747 5.0432 15.875 4.90625C15.3851 4.75953 14.8243 4.68751 14.1875 4.6875ZM6.9375 4.9375V11.625C6.9375 12.388 6.81537 12.937 6.53125 13.25C6.24712 13.563 5.78328 13.7188 5.15625 13.7188C4.78394 13.7188 4.425 13.6467 4.0625 13.5C3.70979 13.3435 3.40119 13.1663 3.15625 13L2.5 14.4688C2.75473 14.6742 3.12347 14.8766 3.59375 15.0625C4.07382 15.2386 4.63461 15.3125 5.28125 15.3125C5.97687 15.3125 6.54931 15.2171 7 15.0312C7.46048 14.8454 7.82921 14.604 8.09375 14.2812C8.36807 13.9585 8.54847 13.5554 8.65625 13.125C8.76402 12.6946 8.81249 12.2489 8.8125 11.75V4.9375H6.9375Z" fill="#F9E2AF" stroke="#F9E2AF"/>
</svg>
