<svg width="20" height="20" viewBox="0 0 20 20" fill="none" xmlns="http://www.w3.org/2000/svg">
<path d="M9.94232 2.04199C5.88053 2.04199 6.13417 3.80343 6.13417 3.80343L6.1387 5.62826H10.0148V6.17616H4.59914C4.59914 6.17616 2 5.8814 2 9.97978C2 14.0782 4.26859 13.9328 4.26859 13.9328H5.62249V12.031C5.62249 12.031 5.54952 9.76243 7.85486 9.76243C10.1602 9.76243 11.6992 9.76243 11.6992 9.76243C11.6992 9.76243 13.8591 9.79735 13.8591 7.67497C13.8591 5.55259 13.8591 4.16568 13.8591 4.16568C13.8591 4.16568 14.1871 2.04199 9.94232 2.04199ZM7.80505 3.26911C8.19069 3.26911 8.50238 3.5808 8.50238 3.96644C8.50238 4.35208 8.19069 4.66377 7.80505 4.66377C7.41941 4.66377 7.10772 4.35208 7.10772 3.96644C7.10772 3.5808 7.41941 3.26911 7.80505 3.26911Z" fill="#89B4FA"/>
<path d="M10.0577 17.9589C14.1195 17.9589 13.8658 16.1974 13.8658 16.1974L13.8613 14.3726H9.98523V13.8247H15.4009C15.4009 13.8247 18 14.1195 18 10.0211C18 5.92268 15.7314 6.06802 15.7314 6.06802H14.3775V7.96983C14.3775 7.96983 14.4505 10.2384 12.1451 10.2384C9.8398 10.2384 8.30077 10.2384 8.30077 10.2384C8.30077 10.2384 6.14086 10.2035 6.14086 12.3259C6.14086 14.4483 6.14086 15.8352 6.14086 15.8352C6.14086 15.8352 5.81292 17.9589 10.0577 17.9589ZM12.1949 16.7317C11.8093 16.7317 11.4976 16.4201 11.4976 16.0344C11.4976 15.6488 11.8093 15.3371 12.1949 15.3371C12.5806 15.3371 12.8923 15.6488 12.8923 16.0344C12.8923 16.4201 12.5806 16.7317 12.1949 16.7317Z" fill="#F9E2AF"/>
</svg>
