<svg width="20" height="20" viewBox="0 0 20 20" fill="none" xmlns="http://www.w3.org/2000/svg">
<path d="M17.054 2L15.7687 16.3983L9.99137 18L4.22992 16.4006L2.94601 2H17.054Z" fill="#FAB387"/>
<path d="M10 3.17773V16.776L14.6684 15.4818L15.7667 3.17773H10Z" fill="#FAB387"/>
<path d="M5.61355 5.4172L6.04764 10.2843H10V8.51814H7.66289L7.50148 6.70955H10V4.94336H9.99389H5.57127L5.61355 5.4172Z" fill="#DCE0E8"/>
<path d="M10 13.1056L9.99226 13.1077L8.02526 12.5766L7.89952 11.168H6.94371H6.12656L6.374 13.9411L9.99187 14.9455L10 14.9432V13.1056Z" fill="#DCE0E8"/>
<path d="M9.9939 14.9445L13.6146 13.941L13.6412 13.6426L14.0562 8.99282L14.0993 8.51855H13.6234H9.9939V10.2847H12.1687L11.9637 12.5753L9.9939 13.107V14.9445Z" fill="#DCE0E8"/>
<path d="M14.2955 6.31257L14.3759 5.4172L14.4182 4.94336H9.9939V6.04031V6.70523V6.70955H14.2544H14.26L14.2955 6.31257Z" fill="#DCE0E8"/>
</svg>
