<svg width="20" height="20" viewBox="0 0 20 20" fill="none" xmlns="http://www.w3.org/2000/svg">
<path d="M10.7074 3.0221L12.625 4.28125L11.5 7.90625L7.4375 11.6875L3.90625 12.4688L3.1875 10.4688L3 14.1562C3.07668 16.9147 5.05851 16.9445 5.90625 16.9688L5.875 17L16.9688 16.9062L17.0625 5.8125C17.1226 4.24807 15.3648 3.00142 14.375 3L10.7074 3.0221ZM5.8701 5.93907C3.78057 8.01014 3.25618 9.91824 4.28994 10.9605C5.32299 12.0035 7.28168 11.1653 9.37121 9.09421C11.4607 7.02314 12.0977 5.0845 11.0645 4.04151C9.42554 2.64807 6.9774 4.72081 5.8701 5.93907Z" fill="#F38BA8"/>
</svg>
