<svg width="20" height="20" viewBox="0 0 20 20" fill="none" xmlns="http://www.w3.org/2000/svg">
<path d="M16.675 10.925C17.5584 11.2341 18 11.7637 18 12.513C18 13.0062 17.8169 13.3976 17.4514 13.6872C17.0864 13.9769 16.5656 14.1567 15.8877 14.1567C15.2098 14.1567 14.5828 13.9603 14.0053 13.6378C14.0116 13.4669 14.0568 13.2793 14.1397 13.0756C14.2227 12.872 14.3209 12.7102 14.4334 12.592C14.9642 12.8678 15.426 13.006 15.8181 13.006C16.0034 13.006 16.1467 12.9749 16.2465 12.9123C16.3465 12.8499 16.3962 12.7661 16.3962 12.6609C16.3962 12.4631 16.243 12.3152 15.9376 12.2166L15.3891 12.0094C14.5592 11.707 14.1442 11.2142 14.1442 10.5296C14.1442 10.0298 14.3186 9.63362 14.6672 9.34054C15.0158 9.04789 15.4857 8.7959 16.0765 8.7959C16.3688 8.7959 16.6906 8.83699 17.0428 8.91916C17.3945 9.00153 17.6835 9.20441 17.9093 9.31589C17.9226 9.50017 17.8856 9.70246 17.7997 9.92273C17.7132 10.1432 17.6072 10.2993 17.4806 10.3915C16.9225 10.1415 16.4581 10.0164 16.086 10.0164C15.9527 10.0164 15.8524 10.046 15.7819 10.1055C15.7123 10.1648 15.678 10.2402 15.678 10.3324C15.678 10.4903 15.804 10.6151 16.0566 10.7072L16.675 10.925Z" fill="#B4BEFE"/>
<path d="M12.2622 10.925C13.1457 11.2341 13.5871 11.7637 13.5871 12.513C13.5871 13.0062 13.4039 13.3976 13.0391 13.6872C12.6737 13.9769 12.1527 14.1567 11.475 14.1567C10.7977 14.1567 10.1699 13.9603 9.59261 13.6378C9.59885 13.4669 9.64405 13.2793 9.72719 13.0756C9.81015 12.872 9.90795 12.7102 10.0209 12.592C10.5522 12.8678 11.0139 13.006 11.4058 13.006C11.5912 13.006 11.7346 12.9749 11.834 12.9123C11.9336 12.8499 11.9837 12.7661 11.9837 12.6609C11.9837 12.4631 11.8305 12.3152 11.5251 12.2166L10.9769 12.0094C10.1468 11.707 9.73171 11.2142 9.73171 10.5296C9.73171 10.0298 9.90603 9.63362 10.255 9.34054C10.6035 9.04789 11.0732 8.7959 11.664 8.7959C11.9561 8.7959 12.2787 8.83699 12.63 8.91916C12.9822 9.00153 13.2708 9.20441 13.4967 9.31589C13.51 9.50017 13.473 9.70246 13.3872 9.92273C13.3009 10.1432 13.1947 10.2993 13.0683 10.3915C12.5099 10.1415 12.0455 10.0164 11.6732 10.0164C11.5402 10.0164 11.4394 10.046 11.3694 10.1055C11.2999 10.1648 11.2653 10.2402 11.2653 10.3324C11.2653 10.4903 11.3915 10.6151 11.6441 10.7072L12.2622 10.925Z" fill="#B4BEFE"/>
<path d="M9.04422 10.9953C9.04422 10.6928 8.99609 10.4132 8.89984 10.1565C8.80379 9.89989 8.66587 9.67979 8.48665 9.49551C8.30725 9.31123 8.0899 9.16663 7.83439 9.06138C7.57849 8.95632 7.2913 8.79785 6.97261 8.79785C6.59404 8.79785 6.26364 8.96924 5.98154 9.10089C5.69943 9.23237 5.46701 9.41313 5.28447 9.6434C5.10155 9.87383 4.96539 10.145 4.87579 10.4574C4.78618 10.7699 4.74138 11.1103 4.74138 11.4784C4.74138 11.8595 4.77777 12.2121 4.85094 12.5343C4.92391 12.8561 5.0485 13.1355 5.22442 13.3726C5.40048 13.6093 5.62956 13.7934 5.91186 13.9247C6.19416 14.0561 6.54454 14.1571 6.96282 14.1571C7.73303 14.1571 8.38371 13.9341 8.91505 13.5594C8.86242 13.1783 8.72666 12.8753 8.50853 12.6517C8.23718 12.7536 7.99712 12.8265 7.78898 12.8714C7.58063 12.9156 7.39692 12.9379 7.23828 12.9379C6.92075 12.9379 6.69226 12.8571 6.55357 12.6939C6.41502 12.5314 6.33902 12.3391 6.32557 12.047H8.91544C9.00099 11.7704 9.04422 11.3965 9.04422 10.9953ZM6.3157 11.0636C6.33543 10.7278 6.39669 10.3687 6.49863 10.2208C6.60076 10.0727 6.75706 9.99872 6.96813 9.99872C7.1855 9.99872 7.34865 10.0774 7.45722 10.2353C7.56602 10.3931 7.62037 10.7112 7.62037 10.9546L7.62057 11.0636H6.3157Z" fill="#B4BEFE"/>
<path d="M4.23337 12.8394H3.96438C3.67192 12.8394 3.56177 12.6856 3.56177 12.3767V6.69964C3.56177 6.35826 3.46319 6.1186 3.33697 5.9805C3.21078 5.84277 2.99169 5.84415 2.67964 5.84415H2.07219L2.00059 5.84277V5.84863L2 6.69358V12.6514C2 13.1253 2.10643 13.4719 2.29578 13.6926C2.48535 13.9129 2.80561 14.0228 3.25713 14.0228C3.56938 14.0228 3.92465 13.99 4.32295 13.924C4.34291 13.8575 4.3529 13.7151 4.3529 13.4966C4.3529 13.2775 4.31301 13.0589 4.23337 12.8394Z" fill="#B4BEFE"/>
</svg>
