<svg width="20" height="20" viewBox="0 0 20 20" fill="none" xmlns="http://www.w3.org/2000/svg">
<path d="M18 9.9L17.3 9.5V9.4L17.9 8.8C17.9 8.8 18 8.6 18 8.5C18 8.4 17.9 8.4 17.9 8.4L17.1 8.1V8L17.5 7.3C17.5 7.3 17.5 7.2 17.5 7C17.5 6.9 17.4 6.9 17.4 6.9L16.5 6.7C16.5 6.7 16.5 6.6 16.4 6.6L16.7 5.9C16.7 5.8 16.7 5.8 16.7 5.6L16.6 5.5H15.8L15.7 5.4V4.6C15.7 4.5 15.7 4.5 15.7 4.3C15.7 4.3 15.6 4.2 15.4 4.3L14.6 4.4L14.5 4.3V3.5C14.5 3.4 14.5 3.4 14.4 3.4C14.4 3.4 14.3 3.4 14.1 3.4L13.4 3.7C13.4 3.7 13.3 3.7 13.3 3.6L13.1 2.7C13.1 2.6 13.1 2.6 13 2.6C12.9 2.6 12.9 2.6 12.7 2.6L12 3H11.9L11.6 2.3C11.6 2.2 11.5 2.2 11.5 2.2C11.4 2.2 11.4 2.2 11.2 2.3L10.7 2.8H10.6L10.1 2.1C10.1 2 10 2 10 2C9.9 2 9.9 2 9.9 2.1L9.5 2.8H9.4L8.8 2.3C8.8 2.3 8.7 2.2 8.5 2.2C8.4 2.2 8.4 2.3 8.4 2.3L8.1 2.9H8L7.3 2.5C7.3 2.5 7.2 2.5 7 2.5C6.9 2.5 6.9 2.6 6.9 2.6L6.7 3.5C6.7 3.5 6.6 3.5 6.6 3.6L5.9 3.4C5.8 3.4 5.8 3.4 5.6 3.4L5.5 3.5V4.3L5.4 4.4L4.6 4.3C4.5 4.3 4.5 4.3 4.3 4.3C4.3 4.3 4.2 4.4 4.3 4.6L4.4 5.4L4.3 5.5H3.5C3.4 5.5 3.4 5.5 3.4 5.6C3.4 5.6 3.4 5.7 3.4 5.9L3.7 6.6C3.7 6.6 3.7 6.7 3.6 6.7L2.7 6.9C2.6 6.9 2.6 6.9 2.6 7C2.6 7.1 2.6 7.1 2.6 7.3L3 8V8.1L2.3 8.4C2.2 8.4 2.2 8.5 2.2 8.5C2.2 8.6 2.2 8.6 2.3 8.8L2.8 9.3V9.4L2.1 9.9C2 9.9 2 10 2 10C2 10.1 2 10.1 2.1 10.1L2.8 10.5V10.6L2.3 11.1C2.3 11.1 2.2 11.2 2.2 11.4C2.2 11.5 2.3 11.5 2.3 11.5L3 11.8V11.9L2.6 12.6C2.6 12.6 2.6 12.7 2.6 12.9C2.6 13 2.7 13 2.7 13L3.5 13.1C3.5 13.1 3.5 13.2 3.6 13.2L3.3 13.9C3.3 14 3.3 14 3.3 14.2L3.4 14.3H4.2L4.3 14.4L4.2 15.2C4.2 15.3 4.2 15.3 4.2 15.5C4.2 15.5 4.3 15.6 4.5 15.5L5.3 15.4L5.4 15.5V16.3C5.4 16.4 5.4 16.4 5.5 16.4C5.5 16.4 5.6 16.4 5.8 16.4L6.5 16.1C6.5 16.1 6.6 16.1 6.6 16.2L6.7 17C6.7 17.1 6.7 17.1 6.8 17.1C6.9 17.1 6.9 17.1 7.1 17.1L7.8 16.7H7.9L8.2 17.4C8.2 17.5 8.3 17.5 8.3 17.5C8.4 17.5 8.4 17.5 8.6 17.4L9.1 16.9H9.2L9.6 17.6C9.9 17.9 10 18 10 18C10.1 18 10.1 18 10.1 17.9L10.5 17.2H10.6L11.1 17.7C11.1 17.7 11.2 17.8 11.4 17.8C11.5 17.8 11.5 17.7 11.5 17.7L11.8 17H11.9L12.6 17.4C12.6 17.4 12.7 17.4 12.9 17.4C13 17.4 13 17.3 13 17.3L13.1 16.5C13.1 16.5 13.2 16.5 13.2 16.4L13.9 16.7C14 16.7 14 16.7 14.2 16.7L14.3 16.6V15.8L14.4 15.7L15.2 15.8C15.3 15.8 15.3 15.8 15.5 15.8C15.5 15.8 15.6 15.7 15.5 15.5L15.4 14.7L15.5 14.6H16.3C16.4 14.6 16.4 14.6 16.4 14.5C16.4 14.5 16.4 14.4 16.4 14.2L16.1 13.5C16.1 13.5 16.1 13.4 16.2 13.4L17 13.3C17.1 13.3 17.1 13.3 17.1 13.2C17.1 13.1 17.1 13.1 17.1 12.9L16.7 12.2V12.1L17.4 11.8C17.5 11.8 17.5 11.7 17.5 11.7C17.5 11.6 17.5 11.6 17.4 11.4L16.9 10.9V10.8L17.6 10.4C18 10.1 18 10 18 10C18 9.9 18 9.9 17.9 9.9H18ZM13.5 15.5C13.2 15.5 13.1 15.2 13.1 15C13.1 14.7 13.4 14.6 13.6 14.6C13.9 14.6 14 14.9 14 15.1C14 15.4 13.7 15.5 13.5 15.5ZM13.2 14C12.9 14 12.8 14.1 12.7 14.3L12.4 15.4C11.8 15.6 10.9 15.8 10 15.8C9.2 15.8 8.2 15.7 7.6 15.3L7.3 14.2C7.3 13.9 7 13.8 6.8 13.9L5.8 14.2C5.7 13.9 5.5 13.7 5.4 13.5H10.1H10.2V11.9C10.2 11.9 10.2 11.9 10.1 11.9H8.7V10.8H10.2C10.3 10.8 10.9 10.8 11.1 11.6C11.1 11.9 11.2 12.5 11.4 12.8C11.5 13.1 11.8 13.6 12.2 13.6H14.6C14.6 13.6 14.6 13.6 14.7 13.6C14.6 13.9 14.3 14 14.2 14.3L13.1 13.9L13.2 14ZM6.6 15.5C6.3 15.5 6.1 15.4 6.1 15.1C6.1 14.8 6.2 14.6 6.5 14.6C6.8 14.6 7 14.7 7 15C7 15.3 6.9 15.5 6.6 15.5ZM4.8 8.1C4.9 8.4 4.8 8.6 4.5 8.8C4.2 8.9 4 8.8 3.8 8.5C3.7 8.2 3.8 8 4.1 7.8C4.4 7.7 4.6 7.8 4.8 8.1ZM4.3 9.5L5.4 9.1C5.7 8.9 5.7 8.6 5.7 8.5L5.4 8H6.2V11.8H4.6C4.4 11.2 4.3 10.7 4.3 10.1C4.3 9.8 4.3 9.7 4.3 9.4V9.5ZM8.8 9.1V8H10.8C10.9 8 11.5 8.1 11.5 8.5C11.5 8.9 11.1 9 10.7 9H8.9L8.8 9.1ZM16 10C16 10.1 16 10.3 16 10.4H15.5C15.5 10.4 15.4 10.4 15.4 10.5V10.8C15.4 11.5 15 11.6 14.7 11.6C14.4 11.6 14 11.5 14 11.3C13.9 10.4 13.5 10.1 13.1 9.7C13.6 9.3 14.3 8.8 14.3 8.1C14.3 7.3 13.8 6.7 13.4 6.6C12.7 6.2 12.2 6.2 12 6.2H5.8C6.6 5.3 7.8 4.6 9.1 4.3L9.8 5.1C9.9 5.2 10.2 5.2 10.5 5.1L11.3 4.3C13.1 4.6 14.4 5.7 15.2 7.1L14.7 8.3C14.6 8.6 14.7 8.7 15 8.8L16.1 9.3C16.1 9.4 16.1 9.7 16.1 9.8L16 10ZM9.7 3.6C9.8 3.5 10.2 3.5 10.4 3.6C10.5 3.7 10.5 4.1 10.4 4.3C10.3 4.4 9.9 4.4 9.7 4.3C9.6 4.2 9.6 3.8 9.7 3.6ZM15.3 8.1C15.4 7.8 15.7 7.7 16 7.8C16.2 8 16.4 8.2 16.2 8.5C16.1 8.8 15.8 8.9 15.6 8.8C15.3 8.6 15.2 8.4 15.3 8.1Z" fill="#FAB387"/>
</svg>
