<svg width="20" height="20" viewBox="0 0 20 20" fill="none" xmlns="http://www.w3.org/2000/svg">
<path d="M4.22999 16.4006L2.94601 2H17.054L15.7688 16.3983L9.99137 18L4.22999 16.4006Z" fill="#74C7EC"/>
<path d="M10.0001 16.776L14.6685 15.4817L15.7668 3.17773H10.0001V16.776Z" fill="#74C7EC"/>
<path d="M10.0001 8.39514H12.3372L12.4986 6.58655H10.0001V4.82031H10.0062H14.4288L14.3865 5.29418L13.9524 10.1612H10.0001V8.39514Z" fill="#DCE0E8"/>
<path d="M10.0106 12.9815L10.0029 12.9837L8.0359 12.4525L7.91011 11.0439H6.95436H6.13724L6.38463 13.817L10.0025 14.8214L10.0106 14.8191V12.9815Z" fill="#DCE0E8"/>
<path d="M12.187 10.0869L11.9744 12.4522L10.0045 12.9839V14.8214L13.6253 13.8179L13.6518 13.5196L13.9591 10.0869H12.187Z" fill="#DCE0E8"/>
<path d="M10.0062 4.82031V5.91727V6.58219V6.58655H5.74565H5.74001L5.70458 6.18956L5.62409 5.29418L5.58188 4.82031H10.0062Z" fill="#DCE0E8"/>
<path d="M10 8.39551V9.49251V10.1573V10.1617H8.06359H8.05794L8.02256 9.76476L7.94202 8.86938L7.89981 8.39551H10Z" fill="#DCE0E8"/>
</svg>
