<svg width="20" height="20" viewBox="0 0 20 20" fill="none" xmlns="http://www.w3.org/2000/svg">
<path fill-rule="evenodd" clip-rule="evenodd" d="M8.625 5.65625L7.25 12.6875H8.90625L9.6875 8.78125H11C11.609 8.78125 11.587 9.03375 11.5 9.46875L10.9062 12.6875H12.6562L13.25 9.125C13.424 8.255 12.892 7.55575 11.5 7.46875H9.9375L10.2812 5.65625H8.625ZM2.34375 7.46875L0.9375 14.5312H2.59375L2.9375 12.6875H4.5C5.979 12.7745 7.65625 11.5568 7.65625 9.46875C7.65625 8.25075 6.9545 7.55575 5.5625 7.46875H2.34375ZM13.8438 7.46875L12.4375 14.5H14.0938L14.4375 12.6875H16C17.479 12.7745 19.125 11.5568 19.125 9.46875C19.125 8.25075 18.4545 7.55575 17.0625 7.46875H13.8438ZM15.2188 8.75H16.3438C16.9527 8.75 17.4062 9.00925 17.4062 9.53125C17.3193 11.0103 16.6267 11.288 15.8438 11.375H14.7812L15.2188 8.75ZM3.71875 8.78125H4.875C5.484 8.78125 5.90625 9.0405 5.90625 9.5625C5.81925 11.0415 5.12675 11.3193 4.34375 11.4062H3.28125L3.71875 8.78125Z" fill="#B4BEFE"/>
</svg>
