<svg width="20" height="20" viewBox="0 0 20 20" fill="none" xmlns="http://www.w3.org/2000/svg">
<path d="M7.18379 11.3077C7.67079 10.3531 8.2243 9.2775 8.66737 8.19745L8.84245 7.77133C8.26383 5.56919 7.91678 3.80133 8.22681 2.65852C8.31031 2.36043 8.65545 2.17969 9.02446 2.17969L9.24913 2.18279H9.29062C9.79582 2.17525 10.0337 2.81789 10.0607 3.06766C10.1052 3.48375 9.91261 4.18788 9.91261 4.18788C9.91261 3.90359 9.9239 3.44421 9.74442 3.04759C9.53544 2.58884 9.33587 2.3146 9.15703 2.2713C9.0667 2.33157 8.9788 2.45643 8.94868 2.69679C8.88652 3.0338 8.86774 3.45929 8.86774 3.67831C8.86774 4.45336 9.02022 5.47567 9.32021 6.52999C9.37673 6.36675 9.42625 6.20993 9.46586 6.06307C9.52733 5.8315 9.91833 4.29646 9.91833 4.29646C9.91833 4.29646 9.81981 6.33983 9.68237 6.95799C9.65283 7.08844 9.62022 7.2178 9.58641 7.35021C10.0809 8.7315 10.8773 9.96404 11.8275 10.8514C12.2021 11.2016 12.6753 11.484 13.1234 11.7413C14.1011 11.6013 15.0017 11.5355 15.7529 11.5436C16.7495 11.5569 17.4812 11.7043 17.7774 11.9961C17.9224 12.138 17.9814 12.3093 17.9996 12.5013C18.0042 12.5759 17.9677 12.7517 17.9569 12.7957C17.9676 12.7424 17.9676 12.48 17.1675 12.2246C16.5374 12.0231 15.3582 12.0294 13.943 12.18C15.5797 12.9808 17.1744 13.3787 17.6796 13.1402C17.8032 13.08 17.9532 12.8747 17.9532 12.8747C17.9532 12.8747 17.8641 13.2795 17.8 13.3805C17.7184 13.4903 17.5584 13.6096 17.4065 13.6498C16.6082 13.8625 14.531 13.3699 12.7198 12.335C10.6966 12.6331 8.47433 13.1835 6.69329 13.7677C4.94274 16.8353 3.62673 18.2442 2.5561 17.7082L2.16261 17.5106C2.00261 17.4189 1.97809 17.1962 2.01507 17.0148C2.13989 16.4042 2.90559 15.4842 4.44377 14.566C4.60939 14.4656 5.34684 14.0759 5.34684 14.0759C5.34684 14.0759 4.80085 14.6043 4.67284 14.7078C3.44532 15.7138 2.53911 16.9796 2.5617 17.4704L2.56607 17.5131C3.60914 17.3643 5.17306 15.2419 7.18379 11.3077ZM7.82075 11.634C7.48501 12.2666 7.1568 12.8527 6.85368 13.3912C8.52992 12.6889 10.3342 12.2396 12.0518 11.9202C11.8209 11.7607 11.5969 11.5919 11.386 11.4137C10.4402 10.6129 9.71917 9.61385 9.19641 8.56267C8.86505 9.45569 8.47092 10.4046 7.82075 11.634Z" fill="#F38BA8"/>
</svg>
