<svg width="296" height="76" viewBox="0 0 296 76" fill="none" xmlns="http://www.w3.org/2000/svg">
<g clip-path="url(#clip0_410_17)">
<path d="M163.399 0.193848C161.599 0.193848 159.899 1.59388 159.499 3.29388L148.099 53.1938C147.699 54.8938 148.799 56.2939 150.499 56.2939H158.699C160.399 56.2939 162.199 54.8938 162.599 53.1938L165.399 41.0939C165.799 39.3939 167.499 37.9939 169.299 37.9939H171.599C181.599 37.9939 189.299 35.9939 194.899 31.8939C200.399 27.7939 203.199 22.3938 203.199 15.6938C203.199 12.7938 202.699 10.2939 201.599 8.39386C200.599 6.39386 198.999 4.79387 197.099 3.59387C195.099 2.39387 192.699 1.4939 189.999 0.993896C187.299 0.493896 184.099 0.293884 180.399 0.293884H163.299L163.399 0.193848ZM278.699 0.493896V2.79388H277.799V3.89386H278.699V8.09387C278.699 9.09387 278.899 9.79385 279.299 10.1938C279.699 10.5938 280.299 10.8939 281.099 10.8939C281.299 10.8939 281.599 10.8939 281.899 10.7939C282.199 10.7939 282.499 10.6939 282.699 10.5939V9.39386H282.599C282.499 9.39386 282.299 9.49387 282.099 9.59387C281.899 9.69387 281.599 9.69385 281.399 9.69385C280.999 9.69385 280.799 9.5939 280.599 9.4939C280.399 9.3939 280.299 9.29387 280.199 9.09387C280.099 8.89387 279.999 8.69386 279.999 8.39386C279.999 8.19386 279.999 7.79386 279.999 7.39386V3.79388H282.799V2.69385H280.099V0.39386H278.799L278.699 0.493896ZM261.699 0.593872C259.999 0.593872 258.299 1.8939 257.899 3.4939C257.899 3.5939 257.899 3.59385 257.799 3.69385C257.799 3.69385 257.599 4.49386 257.299 5.89386L247.299 51.2939C247.099 52.2939 246.899 52.9938 246.899 53.1938C246.599 54.7938 247.499 56.0938 249.099 56.1938H256.699C258.399 56.1938 259.999 54.8939 260.499 53.2939C260.499 53.1939 260.599 53.1939 260.599 53.0939L271.499 3.69385C271.899 1.99385 270.799 0.593872 268.999 0.593872H261.699ZM288.299 2.59387C287.799 2.59387 287.399 2.69386 286.999 2.89386C286.599 3.09386 286.199 3.39385 285.799 3.69385V2.79388H284.499V10.6938H285.799V4.79388C286.199 4.49388 286.499 4.29387 286.899 4.09387C287.299 3.89387 287.599 3.89386 287.999 3.89386C288.399 3.89386 288.699 3.99387 288.899 4.09387C289.099 4.19387 289.299 4.2939 289.399 4.4939C289.499 4.6939 289.599 4.99388 289.599 5.29388C289.599 5.59388 289.599 5.89388 289.599 6.29388V10.7939H290.899V5.69385C290.899 5.59385 290.899 5.39388 290.899 5.29388C290.899 5.19388 290.899 4.99386 290.799 4.89386C291.199 4.59386 291.599 4.39385 291.899 4.19385C292.299 3.99385 292.599 3.89386 292.999 3.89386C293.399 3.89386 293.699 3.99387 293.899 4.09387C294.099 4.19387 294.299 4.39387 294.399 4.59387C294.499 4.79387 294.599 4.99386 294.599 5.39386C294.599 5.69386 294.599 5.99386 294.599 6.39386V10.8939H295.899V5.69385C295.899 4.79385 295.699 3.9939 295.299 3.4939C294.899 2.9939 294.199 2.69385 293.399 2.69385C292.899 2.69385 292.399 2.7939 291.999 2.9939C291.599 3.1939 290.999 3.4939 290.499 3.9939C290.299 3.5939 289.999 3.29387 289.699 3.09387C289.299 2.89387 288.899 2.79388 288.299 2.79388V2.59387ZM175.499 10.5939H178.199C181.299 10.5939 183.699 11.0938 185.299 12.1938C186.899 13.2938 187.599 14.8939 187.599 17.0939C187.599 20.3939 186.399 22.9939 183.899 24.7939C181.499 26.5939 177.999 27.4939 173.599 27.4939H171.599C169.799 27.4939 168.699 26.0939 169.099 24.3939L171.499 13.7939C171.899 12.0939 173.599 10.6938 175.399 10.6938L175.499 10.5939ZM226.299 12.7939C222.999 12.7939 219.699 13.0939 216.399 13.5939C213.999 13.9939 213.699 13.9939 212.199 14.3939C209.099 15.0939 208.599 18.1938 208.599 18.1938L207.599 22.2939C206.999 24.8939 208.499 24.7939 209.199 24.5939C210.599 24.1939 211.299 23.7938 213.999 23.1938C216.599 22.5938 219.399 22.1938 221.699 22.1938C224.999 22.1938 227.399 22.4938 229.099 23.1938C230.699 23.8938 231.599 25.0939 231.599 26.8939C231.599 27.2939 231.599 27.6939 231.499 28.0939C231.399 28.3939 231.099 28.6939 230.299 28.8939C225.599 29.1939 222.299 29.5938 218.299 30.1938C214.299 30.7938 210.899 31.6939 207.999 32.9939C204.899 34.3939 202.599 36.1939 200.999 38.4939C199.399 40.7939 198.699 43.6939 198.699 46.9939C198.699 50.1939 199.799 52.6938 201.999 54.6938C204.199 56.6938 207.099 57.5939 210.599 57.5939C212.799 57.5939 214.499 57.3939 215.699 57.0939C216.899 56.7939 218.199 56.3939 219.599 55.7939C220.599 55.3939 221.799 54.6939 222.999 53.8939C224.199 53.0939 224.999 52.5939 226.099 51.8939V51.9939L225.799 53.2939C225.499 54.8939 226.399 56.1939 227.999 56.2939H228.099C229.099 56.2939 232.699 56.2939 234.399 56.2939H235.599C235.699 56.2939 235.699 56.2939 235.699 56.2939C237.299 56.0939 238.799 54.7938 239.199 53.1938L245.199 27.4939C245.299 26.8939 245.399 26.1939 245.499 25.3939C245.599 24.5939 245.699 23.8939 245.599 23.4939C245.599 19.8939 244.099 17.1939 240.999 15.3939C237.899 13.6939 233.099 12.7939 226.399 12.7939H226.299ZM229.099 36.3939C229.399 36.3939 229.499 36.4939 229.399 37.3939C229.299 37.8939 228.299 42.2939 227.799 44.2939C227.699 44.8939 226.799 45.7939 226.499 45.9939C225.499 46.5939 224.399 47.1939 223.299 47.5939C221.799 48.1939 220.399 48.4939 219.099 48.4939C217.099 48.4939 215.499 48.1939 214.499 47.5939C213.399 46.9939 212.899 45.9939 212.899 44.5939C212.899 42.8939 213.299 41.5939 214.099 40.5939C214.899 39.5939 216.099 38.7938 217.599 38.1938C219.099 37.6938 220.899 37.2939 222.999 36.9939C224.899 36.7939 228.499 36.2939 228.999 36.2939C229.099 36.2939 229.199 36.2939 229.299 36.2939L229.099 36.3939Z" fill="#89DCEB"/>
<path d="M32.4988 -0.00610352H15.4988C13.6988 -0.00610352 11.9988 1.39387 11.5988 3.09387L0.0987899 52.9939C-0.30121 54.6939 0.79879 56.0939 2.59879 56.0939H10.7988C12.5988 56.0939 14.2988 54.6939 14.6988 52.9939L17.4988 40.8939C17.8988 39.1939 19.5988 37.7939 21.3988 37.7939H23.6988C33.6988 37.7939 41.3988 35.7938 46.9988 31.6938C52.4988 27.5938 55.2988 22.1939 55.2988 15.4939C55.2988 12.5939 54.7988 10.0938 53.6988 8.19385C52.6988 6.19385 51.1988 4.59386 49.1988 3.39386C47.1988 2.19386 44.8988 1.29388 42.0988 0.793884C39.3988 0.293884 36.0988 0.0938965 32.4988 -0.00610352ZM27.6988 10.3939H30.3988C33.4988 10.3939 35.8988 10.8939 37.4988 11.9939C39.0988 12.9939 39.8988 14.6939 39.8988 16.7939C39.8988 20.0939 38.6988 22.6939 36.1988 24.4939C33.6988 26.2939 30.2988 27.1938 25.8988 27.1938H23.8988C22.0988 27.1938 20.9988 25.7939 21.3988 24.0939L23.8988 13.4939C24.2988 11.7939 25.9988 10.3939 27.7988 10.3939H27.6988ZM78.3988 12.6938C75.0988 12.6938 71.7988 12.8939 68.4988 13.4939C66.0988 13.8939 65.8988 13.9939 64.2988 14.2939C61.1988 14.9939 60.6988 18.0939 60.6988 18.0939L59.6988 22.1938C59.0988 24.7938 60.5988 24.6939 61.2988 24.4939C62.5988 24.0939 63.3988 23.6939 66.0988 23.0939C68.6988 22.4939 71.4988 22.0939 73.7988 22.0939C77.0988 22.0939 79.5988 22.4938 81.1988 23.1938C82.8988 23.8938 83.5988 25.0939 83.5988 26.8939C83.5988 27.2939 83.5988 27.6939 83.4988 28.0939C83.3988 28.3939 83.0988 28.6939 82.2988 28.8939C77.6988 29.1939 74.2988 29.5938 70.2988 30.1938C66.2988 30.7938 62.8988 31.6939 59.9988 32.9939C56.8988 34.3939 54.5988 36.1939 52.9988 38.4939C51.3988 40.7939 50.6988 43.6939 50.6988 46.9939C50.6988 50.1939 51.7988 52.7939 53.9988 54.7939C56.1988 56.7939 59.0988 57.6938 62.5988 57.6938C64.7988 57.6938 66.4988 57.4938 67.6988 57.1938C68.8988 56.8938 70.1988 56.4939 71.5988 55.8939C72.5988 55.4939 73.7988 54.7939 74.9988 53.9939C76.1988 53.1939 76.9988 52.6939 78.0988 51.9939V52.0939L77.7988 53.3939C77.4988 54.9939 78.3988 56.2939 79.9988 56.4939H80.0988C81.0988 56.4939 84.6988 56.4939 86.3988 56.4939H87.5988C87.6988 56.4939 87.6988 56.4939 87.6988 56.3939C89.2988 56.1939 90.7988 54.8939 91.1988 53.3939L97.0988 27.6938C97.1988 27.0938 97.3988 26.3939 97.3988 25.5939C97.4988 24.7939 97.4988 24.0938 97.4988 23.6938C97.4988 20.0938 95.9988 17.3939 92.8988 15.5939C89.7988 13.8939 84.9988 12.9939 78.2988 12.9939L78.3988 12.6938ZM138.599 13.2939C136.899 13.2939 134.599 14.6939 133.499 16.3939C133.499 16.3939 121.799 36.3939 120.699 38.3939C120.099 39.4939 119.499 38.7939 119.399 38.3939C119.299 37.8939 115.799 16.4939 115.799 16.4939C115.399 14.7939 113.599 13.2939 111.399 13.2939H104.099C102.299 13.2939 101.199 14.6939 101.599 16.3939C101.599 16.3939 107.199 47.8939 108.299 55.3939C108.799 59.4939 108.199 60.1938 108.199 60.1938L100.999 72.7939C99.8988 74.4939 100.499 75.8939 102.299 75.8939H110.699C112.399 75.8939 114.799 74.4939 115.799 72.7939L148.299 17.8939C148.299 17.8939 151.399 13.1938 148.499 13.1938C146.499 13.1938 138.699 13.1938 138.699 13.1938L138.599 13.2939ZM80.8988 36.3939C81.3988 36.3939 81.6988 36.0939 81.4988 37.3939C81.3988 37.8939 80.3988 42.2939 79.8988 44.2939C79.7988 44.8939 78.9988 45.7939 78.5988 45.9939C77.5988 46.5939 76.4988 47.1938 75.3988 47.6938C73.8988 48.2938 72.4988 48.5939 71.1988 48.5939C69.1988 48.5939 67.5988 48.2938 66.5988 47.6938C65.4988 47.0938 64.9988 46.0938 64.9988 44.6938C64.9988 42.9938 65.3988 41.6938 66.1988 40.6938C66.9988 39.6938 68.1988 38.8939 69.6988 38.3939C71.1988 37.8939 72.9988 37.4938 75.0988 37.1938C76.9988 36.9938 80.5988 36.4939 81.0988 36.4939L80.8988 36.3939Z" fill="#89B4FA"/>
</g>
<defs>
<clipPath id="clip0_410_17">
<rect width="296" height="76" fill="white"/>
</clipPath>
</defs>
</svg>
