<svg width="24" height="24" viewBox="0 0 24 24" fill="none" xmlns="http://www.w3.org/2000/svg">
<path d="M15.8 14.3H15L14.7 14C15.7 12.9 16.3 11.4 16.3 9.80005C16.3 6.20005 13.4 3.30005 9.8 3.30005C6.2 3.30005 3.3 6.20005 3.3 9.80005C3.3 13.4 6.2 16.3 9.8 16.3C11.4 16.3 12.9 15.7 14 14.7L14.3 15V15.8L19.3 20.8L20.8 19.3L15.8 14.3ZM9.8 14.3C7.3 14.3 5.3 12.3 5.3 9.80005C5.3 7.30005 7.3 5.30005 9.8 5.30005C12.3 5.30005 14.3 7.30005 14.3 9.80005C14.3 12.3 12.3 14.3 9.8 14.3Z" fill="#CBA6F7"/>
</svg>
